<?xml version="1.0" standalone="no"?>
<!DOCTYPE svg PUBLIC "-//W3C//DTD SVG 20010904//EN"
 "http://www.w3.org/TR/2001/REC-SVG-20010904/DTD/svg10.dtd">
<svg version="1.0" xmlns="http://www.w3.org/2000/svg"
 width="16.000000pt" height="16.000000pt" viewBox="0 0 16.000000 16.000000"
 preserveAspectRatio="xMidYMid meet">
<metadata>
Created by potrace 1.11, written by Peter Selinger 2001-2013
</metadata>
<g transform="translate(0.000000,16.000000) scale(0.002105,-0.002105)"
fill="#000000" stroke="none">
<path d="M1469 7260 c-151 -19 -352 -86 -482 -161 -224 -129 -430 -350 -531
-570 -158 -345 -166 -730 -21 -1069 130 -303 375 -550 675 -681 l85 -37 6
-1038 c5 -1104 4 -1076 55 -1314 252 -1189 1321 -2051 2541 -2050 709 1 1375
283 1868 791 199 205 350 418 470 663 91 187 143 328 189 516 72 294 69 242
75 1394 l6 1039 75 31 c272 115 524 353 659 623 36 73 93 258 112 363 21 119
16 345 -10 467 -37 177 -103 333 -204 483 -66 97 -232 264 -327 327 -266 178
-576 257 -875 225 -592 -65 -1054 -503 -1150 -1090 -31 -184 -12 -429 46 -607
31 -93 133 -293 191 -370 134 -182 390 -376 571 -434 l38 -13 -4 -1026 c-3
-1025 -3 -1027 -25 -1127 -153 -672 -632 -1173 -1277 -1335 -167 -42 -281 -53
-488 -47 -285 8 -486 59 -737 189 -163 83 -287 175 -425 313 -240 240 -391
514 -473 860 l-26 110 -3 1031 -4 1031 48 18 c144 54 282 145 415 273 206 198
311 390 374 682 26 118 26 381 1 500 -130 607 -629 1029 -1237 1045 -74 2
-165 0 -201 -5z m319 -888 c115 -45 209 -143 252 -265 24 -69 27 -191 5 -263
-34 -116 -137 -226 -255 -275 -45 -19 -74 -23 -161 -23 -101 -1 -108 0 -180
36 -79 39 -144 95 -184 158 -75 119 -86 288 -27 411 53 110 174 210 288 239
61 15 201 5 262 -18z m4357 -10 c93 -44 174 -124 216 -215 32 -67 34 -79 34
-177 0 -99 -2 -109 -34 -177 -92 -196 -314 -297 -519 -234 -78 23 -170 86
-215 144 -185 243 -68 600 223 682 89 25 213 15 295 -23z"/>
</g>
</svg>
