<?xml version="1.0" standalone="no"?>
<!DOCTYPE svg PUBLIC "-//W3C//DTD SVG 20010904//EN"
 "http://www.w3.org/TR/2001/REC-SVG-20010904/DTD/svg10.dtd">
<svg version="1.0" xmlns="http://www.w3.org/2000/svg"
 width="16.000000pt" height="16.000000pt" viewBox="0 0 16.000000 16.000000"
 preserveAspectRatio="xMidYMid meet">
<metadata>
Created by potrace 1.11, written by Peter Selinger 2001-2013
</metadata>
<g transform="translate(0.000000,16.000000) scale(0.004211,-0.004211)"
fill="#000000" stroke="none">
<path d="M401 3089 c-25 -5 -78 -25 -119 -44 -210 -99 -324 -344 -266 -569 74
-287 373 -451 650 -356 32 11 69 27 82 36 25 16 25 16 373 -332 l348 -347 -25
-49 c-144 -284 18 -631 333 -713 163 -43 353 11 473 134 153 157 192 390 96
579 l-25 49 348 347 c348 348 348 348 373 332 13 -9 50 -25 82 -36 277 -95
576 69 650 356 73 283 -125 575 -418 617 -191 28 -392 -65 -495 -229 -94 -148
-102 -358 -19 -503 l19 -35 -349 -349 c-349 -349 -349 -349 -374 -333 -121 79
-365 79 -486 0 -25 -16 -25 -16 -374 333 l-349 349 19 35 c61 107 75 269 34
390 -84 245 -329 388 -581 338z m227 -240 c93 -46 146 -121 158 -222 13 -111
-47 -227 -147 -282 -47 -26 -64 -30 -134 -30 -67 0 -88 5 -130 27 -64 33 -97
69 -129 138 -51 109 -28 229 59 316 89 90 210 110 323 53z m2758 14 c32 -11
66 -34 100 -67 137 -137 102 -364 -70 -454 -43 -22 -64 -27 -131 -27 -70 0
-87 4 -134 30 -100 55 -160 171 -147 282 12 101 65 176 158 222 72 36 145 41
224 14z m-1370 -1401 c62 -32 97 -65 129 -124 26 -46 30 -63 30 -133 0 -67 -5
-88 -27 -131 -107 -205 -401 -205 -505 -1 -80 158 -6 340 164 403 53 20 157
13 209 -14z"/>
</g>
</svg>
