<?xml version="1.0" standalone="no"?>
<!DOCTYPE svg PUBLIC "-//W3C//DTD SVG 20010904//EN"
 "http://www.w3.org/TR/2001/REC-SVG-20010904/DTD/svg10.dtd">
<svg version="1.0" xmlns="http://www.w3.org/2000/svg"
 width="16.000000pt" height="16.000000pt" viewBox="0 0 16.000000 16.000000"
 preserveAspectRatio="xMidYMid meet">
<metadata>
Created by potrace 1.11, written by Peter Selinger 2001-2013
</metadata>
<g transform="translate(0.000000,16.000000) scale(0.012500,-0.012500)"
fill="#000000" stroke="none">
<path d="M555 1126 c-117 -28 -226 -116 -278 -228 -30 -62 -36 -69 -78 -83
-188 -64 -248 -318 -109 -463 56 -58 112 -81 216 -88 81 -6 90 -9 137 -44 119
-90 295 -86 395 9 27 27 35 29 146 34 107 5 122 8 164 34 28 17 59 48 77 77
26 43 30 59 30 120 -1 80 -16 118 -70 170 -18 18 -48 37 -66 42 -26 7 -33 15
-36 39 -16 144 -95 267 -215 338 -83 48 -212 66 -313 43z m257 -89 c62 -30
127 -92 162 -153 27 -47 35 -76 42 -148 7 -71 9 -74 49 -82 72 -13 125 -80
125 -158 0 -59 -23 -106 -68 -136 -29 -21 -50 -26 -120 -29 l-84 -3 8 23 c53
168 -12 327 -164 397 -153 70 -340 -1 -413 -157 -31 -66 -33 -174 -4 -243 6
-16 1 -18 -36 -18 -95 0 -175 48 -210 124 -59 130 29 295 166 311 11 1 23 3
26 4 4 0 16 27 28 59 58 161 185 245 357 239 63 -3 93 -9 136 -30z m-76 -351
c118 -55 172 -185 126 -307 -22 -58 -46 -88 -101 -125 -40 -26 -53 -29 -125
-29 -87 0 -122 14 -179 71 -58 58 -81 154 -56 242 16 57 96 142 149 159 60 19
130 15 186 -11z"/>
<path d="M595 634 c-23 -23 -20 -191 4 -203 13 -6 117 -8 154 -2 5 0 7 13 5
29 -3 25 -7 27 -55 30 l-53 3 0 69 c0 58 -3 71 -19 80 -15 7 -24 6 -36 -6z"/>
</g>
</svg>
