<?xml version="1.0" standalone="no"?>
<!DOCTYPE svg PUBLIC "-//W3C//DTD SVG 20010904//EN"
 "http://www.w3.org/TR/2001/REC-SVG-20010904/DTD/svg10.dtd">
<svg version="1.0" xmlns="http://www.w3.org/2000/svg"
 width="16.000000pt" height="16.000000pt" viewBox="0 0 16.000000 16.000000"
 preserveAspectRatio="xMidYMid meet">
<metadata>
Created by potrace 1.11, written by Peter Selinger 2001-2013
</metadata>
<g transform="translate(0.000000,16.000000) scale(0.012500,-0.012500)"
fill="#000000" stroke="none">
<path d="M95 1030 c-82 -41 -116 -140 -76 -222 37 -77 126 -115 206 -88 l38
12 114 -114 c109 -109 114 -115 103 -142 -53 -139 77 -274 214 -222 84 32 124
112 100 201 l-13 50 113 113 112 113 45 -12 c57 -15 107 -6 152 29 96 73 84
223 -23 279 -24 13 -58 23 -77 23 -111 0 -194 -113 -161 -220 l14 -45 -112
-113 -113 -112 -45 11 c-44 11 -75 9 -123 -6 -18 -6 -40 12 -135 107 l-114
113 13 44 c42 146 -98 268 -232 201z m103 -59 c28 -2 62 -49 62 -86 0 -46 -14
-71 -48 -88 -54 -27 -122 1 -136 57 -13 54 44 130 92 121 9 -2 23 -4 30 -4z
m962 -20 c46 -33 45 -109 -2 -149 -43 -35 -121 -12 -144 44 -20 47 1 99 48
119 36 16 61 12 98 -14z m-466 -467 c31 -23 43 -74 26 -113 -28 -69 -138 -73
-169 -5 -43 95 59 179 143 118z"/>
</g>
</svg>
